OpenSim_Sub08_CSStiffKnee_RCS.mot
version=1
nRows=74
nColumns=11
inDegrees=no
endheader
time	Top_Thigh	Med_Thigh	Bot_Thigh	Top_Shank	2nd_Top_Shank	2nd_Bot_Shank	Bot_Shank	BNOx	BNOy	BNOZ
39.61000000	1342.27166730	1305.65059434	1148.82573333	1319.86576048	1315.24405339	1313.78826667	1179.71533115	-90.03638286	-70.92167227	-146.50476200
39.62000000	1342.61616889	1306.17057091	1147.66954346	1319.30318296	1315.37970104	1313.85939407	1180.85101919	-101.65076959	-70.95409018	-144.98905798
39.63000000	1343.97861406	1306.90425345	1146.74402097	1318.58379954	1315.55213174	1313.98027766	1181.93835508	-106.61297850	-70.99372099	-143.42812100
39.64000000	1346.18814459	1307.80208611	1146.05565848	1317.76017488	1315.76625302	1314.14190480	1182.95640844	-105.83885010	-71.03939763	-141.99288592
39.65000000	1349.07390223	1308.81451304	1145.61094857	1316.88487360	1316.02697240	1314.33526285	1183.88424890	-100.24422491	-71.08995298	-140.85428762
39.66000000	1352.46502874	1309.89197839	1145.41638385	1316.01046036	1316.33919743	1314.55133914	1184.70094608	-90.74494344	-71.14421996	-140.18326097
39.67000000	1356.19066587	1310.98492631	1145.47845690	1315.18949979	1316.70783564	1314.78112104	1185.38556960	-78.25684621	-71.20103148	-140.15074084
39.68000000	1360.07995538	1312.04380094	1145.80366034	1314.47455654	1317.13779456	1315.01559589	1185.91718909	-63.69577374	-71.25922044	-140.92766209
39.69000000	1363.96203904	1313.01904644	1146.39848676	1313.91819524	1317.63398172	1315.24575104	1186.27487417	-47.97756654	-71.31761976	-142.68495960
39.70000000	1367.66605859	1313.86110696	1147.26942875	1313.57298054	1318.20130465	1315.46257385	1186.43769447	-32.01806513	-71.37506233	-145.59356824
39.71000000	1371.02115580	1314.52042664	1148.42297891	1313.49147709	1318.84467090	1315.65705166	1186.38471961	-16.73311003	-71.43038106	-149.82442288
39.72000000	1373.85647243	1314.94744964	1149.86562984	1313.72624951	1319.56898799	1315.82017182	1186.09501921	-3.03854175	-71.48240887	-155.54845839
39.73000000	1376.00115023	1315.09262010	1151.60387415	1314.32986246	1320.37916346	1315.94292169	1185.54766290	8.14979920	-71.52997865	-162.93660964
39.74000000	1377.28559091	1314.90723557	1153.64339325	1315.35368687	1321.27949614	1316.01641107	1184.72211361	15.92441449	-71.57195264	-172.14590092
39.75000000	1377.63767923	1314.40862142	1155.92710807	1316.75673613	1322.22719001	1316.04122374	1183.62826455	20.02324439	-71.60946111	-182.25709034
39.76000000	1377.15054042	1313.72602474	1158.29155614	1318.34147121	1323.09961997	1316.03400260	1182.32759040	21.27829243	-71.64747887	-190.52659009
39.77000000	1375.93330582	1312.99953397	1160.56297011	1319.89518856	1323.76642826	1316.01294609	1180.88656229	20.62753886	-71.69135315	-194.03409656
39.78000000	1374.09510675	1312.36923754	1162.56758265	1321.20518466	1324.09725713	1315.99625265	1179.37165132	19.00896396	-71.74643115	-189.85930614
39.79000000	1371.74510124	1311.97518589	1164.13167783	1322.05880800	1323.96179056	1316.00211489	1177.84932214	17.36037414	-71.81805757	-175.08283540
39.80000000	1369.02789084	1311.90701945	1165.14977327	1322.31245550	1323.28513410	1316.04096867	1176.37743219	16.38887383	-71.90824086	-148.00636629
39.81000000	1366.19339265	1312.10459218	1165.71913328	1322.02769210	1322.15707081	1316.10020182	1174.98826378	16.11606789	-72.00907631	-110.55981042
39.82000000	1363.51099503	1312.48006481	1165.97450689	1321.30401518	1320.69783010	1316.16294091	1173.70937076	16.43682287	-72.11082637	-65.34388326
39.83000000	1361.25008630	1312.94559809	1166.05064314	1320.24092208	1319.02764137	1316.21231252	1172.56830699	17.24600532	-72.20375353	-14.95930025
39.84000000	1359.68005480	1313.41335275	1166.08229108	1318.93791015	1317.26673403	1316.23144324	1171.59262634	18.43848178	-72.27812025	37.99322317
39.85000000	1359.07028888	1313.79548953	1166.20419975	1317.49447676	1315.53533749	1316.20345965	1170.80988267	19.90911881	-72.32418900	90.91297155
39.86000000	1359.69017687	1314.00416917	1166.55111818	1316.01011926	1313.95368116	1316.11148834	1170.24762984	21.55278294	-72.33222227	141.19922944
39.87000000	1361.80693518	1313.95211991	1167.25695295	1314.58387360	1312.64133166	1315.93878316	1169.93318197	23.26478658	-72.29255087	186.26481498
39.88000000	1365.51973669	1313.59597735	1168.39042854	1313.27907621	1311.66657567	1315.67844596	1169.87530486	24.97493751	-72.20079310	224.56964470
39.89000000	1370.64290889	1312.96680311	1169.90978128	1312.09855039	1311.01077684	1315.34027161	1170.05132355	26.67151562	-72.06152999	256.34853961
39.90000000	1376.96318760	1312.10286813	1171.76254502	1311.03925783	1310.64687898	1314.93567196	1170.43551760	28.34846471	-71.88021071	282.00824735
39.91000000	1384.26730866	1311.04244334	1173.89625361	1310.09816021	1310.54782591	1314.47605883	1171.00216654	29.99972859	-71.66228445	301.95551557
39.92000000	1392.34200792	1309.82379967	1176.25844091	1309.27221920	1310.68656143	1313.97284406	1171.72554992	31.61925105	-71.41320039	316.59709192
39.93000000	1400.97402120	1308.48520806	1178.79664077	1308.55839648	1311.03602938	1313.43743951	1172.57994728	33.20097589	-71.13840771	326.33972403
39.94000000	1409.95008436	1307.06493942	1181.45838705	1307.95365374	1311.56917355	1312.88125699	1173.53963817	34.73884692	-70.84335560	331.59015955
39.95000000	1419.05693322	1305.60126470	1184.19121360	1307.45495264	1312.25893777	1312.31570836	1174.57890213	36.22680794	-70.53349323	332.75514613
39.96000000	1428.08130362	1304.13245482	1186.94265427	1307.05925487	1313.07826584	1311.75220545	1175.67201871	37.65880274	-70.21426980	330.24143141
39.97000000	1436.80993140	1302.69678072	1189.66024292	1306.76352212	1314.00010159	1311.20216010	1176.79326743	39.02877513	-69.89113448	324.45576303
39.98000000	1445.02955240	1301.33251333	1192.29151341	1306.56471604	1314.99738883	1310.67698414	1177.91692786	40.33066892	-69.56953645	315.80488864
39.99000000	1452.52690246	1300.07792357	1194.78399958	1306.45979834	1316.04307137	1310.18808943	1179.01727954	41.55842789	-69.25492490	304.69555589
40	1459.08871741	1298.97128239	1197.08523529	1306.44573068	1317.11009303	1309.74688779	1180.06860199	42.70599586	-68.95274902	291.53451242
40.01000000	1464.50173309	1298.05086070	1199.14275439	1306.51947474	1318.17139762	1309.36479106	1181.04517478	43.76731662	-68.66845797	276.72850587
40.02000000	1468.55268534	1297.35492944	1200.90409075	1306.67799220	1319.19992895	1309.05321109	1181.92127745	44.73633398	-68.40750096	260.68428389
40.03000000	1471.02831000	1296.92175954	1202.31677821	1306.91824475	1320.16863085	1308.82355971	1182.67118953	45.60699173	-68.17532715	243.80859412
40.04000000	1471.71534290	1296.78962194	1203.32835062	1307.23719405	1321.05044712	1308.68724876	1183.26919057	46.37323368	-67.97738573	226.50818421
40.05000000	1470.40051988	1296.99678756	1203.88634184	1307.63180180	1321.81832158	1308.65569008	1183.68956011	47.02900362	-67.81912589	209.18980180
40.06000000	1466.87057679	1297.58152734	1203.93828573	1308.09902966	1322.44519805	1308.74029551	1183.90657770	47.56824537	-67.70599681	192.26019454
40.07000000	1460.91224945	1298.58211220	1203.43171614	1308.63583932	1322.90402033	1308.95247688	1183.89452288	47.98490272	-67.64344766	176.12611007
40.08000000	1452.31227371	1300.03681307	1202.31416693	1309.23919246	1323.16773225	1309.30364604	1183.62767520	48.27291947	-67.63692764	161.19429603
40.09000000	1440.85738540	1301.98390090	1200.53317193	1309.90605075	1323.20927762	1309.80521482	1183.08031419	48.42623942	-67.69188592	147.87150008
40.10000000	1426.33432037	1304.46164660	1198.03626503	1310.63337587	1323.00160025	1310.46859507	1182.22671941	48.43880637	-67.81377170	136.56446985
40.11000000	1408.52981444	1307.50832112	1194.77098005	1311.41812951	1322.51764395	1311.30519861	1181.04117039	48.30456413	-68.00803414	127.67995298
40.12000000	1387.24500170	1311.15948389	1190.68788391	1312.25656839	1321.73126582	1312.32549982	1179.49929192	48.01734438	-68.28008972	121.62957532
40.13000000	1363.39501361	1315.24090624	1185.97221099	1313.09040694	1320.68698307	1313.46744017	1177.68079049	47.56230405	-68.63282442	119.20238957
40.14000000	1339.78328451	1319.22275404	1181.20697339	1313.76890662	1319.54908672	1314.54601285	1175.84179832	46.90989577	-69.06483482	121.82721323
40.15000000	1319.32571406	1322.55430033	1176.99913345	1314.13691023	1318.48957367	1315.36928962	1174.24914409	46.03080449	-69.57406092	130.93074901
40.16000000	1303.31795107	1324.99653710	1173.62029988	1314.14360768	1317.59083111	1315.86006566	1173.02261611	44.93381772	-70.15289774	146.46572624
40.17000000	1291.43539354	1326.62217532	1171.00672767	1313.84253597	1316.84563654	1316.05585960	1172.13496225	43.66582557	-70.78819531	166.91090094
40.18000000	1283.28299373	1327.51747894	1169.08009127	1313.29176894	1316.24287140	1315.99917805	1171.55253734	42.27537479	-71.46656258	190.68094333
40.19000000	1278.46570396	1327.76871190	1167.76206508	1312.54938041	1315.77141711	1315.73252761	1171.24169621	40.81101212	-72.17460850	216.19052361
40.20000000	1276.58847649	1327.46213818	1166.97432355	1311.67344422	1315.42015512	1315.29841490	1171.16879369	39.32128430	-72.89894202	241.85431199
40.21000000	1277.25626363	1326.68402173	1166.63854108	1310.72203422	1315.17796684	1314.73934652	1171.30018460	37.85473808	-73.62617207	266.08697868
40.22000000	1280.07401765	1325.52062649	1166.67639211	1309.75322422	1315.03373372	1314.09782907	1171.60222378	36.45992021	-74.34290762	287.30319390
40.23000000	1284.64669086	1324.05821644	1167.00955106	1308.82508808	1314.97633718	1313.41636916	1172.04126605	35.18537741	-75.03575760	303.91762785
40.24000000	1290.57923553	1322.38305551	1167.55969236	1307.99569961	1314.99465866	1312.73747341	1172.58366623	34.07965645	-75.69133097	314.34495074
40.25000000	1297.47660396	1320.58140767	1168.24849043	1307.32313266	1315.07757959	1312.10364840	1173.19577916	33.19130407	-76.29623666	316.99983279
40.26000000	1304.94374844	1318.73953687	1168.99761968	1306.86546106	1315.21398139	1311.55740075	1173.84395966	32.56886700	-76.83708364	310.29694421
40.27000000	1312.58562125	1316.94370708	1169.72875456	1306.68075865	1315.39274551	1311.14123707	1174.49456257	32.26089199	-77.30048085	292.65095520
40.28000000	1320.00717468	1315.28018224	1170.36356948	1306.82709925	1315.60275336	1310.89766397	1175.11394270	32.31592578	-77.67303723	262.47653598
40.29000000	1326.81336103	1313.83522630	1170.82373887	1307.36255671	1315.83288639	1310.86918804	1175.66845489	32.78251513	-77.94136173	218.18835676
40.30000000	1332.61239118	1312.69445667	1171.03171609	1308.34411856	1316.07204860	1311.09777279	1176.12468964	33.70432640	-78.09220600	158.24122322
40.31000000	1337.26459553	1311.89346553	1170.97022146	1309.74472496	1316.31088988	1311.58336159	1176.46747205	34.74743034	-78.12336314	84.19523755
40.32000000	1341.05766457	1311.38304893	1170.72413201	1311.39484997	1316.54301961	1312.25467073	1176.71253611	34.93784686	-78.05134219	2.87419504
40.33000000	1344.32068511	1311.10578909	1170.38822016	1313.11116758	1316.76233383	1313.03351709	1176.87860981	33.23959717	-77.89446514	-78.38823982
40.34000000	1347.38274398	1311.00426825	1170.05725838	1314.71035184	1316.96272854	1313.84171753	1176.98442115	28.61670247	-77.67105399	-152.25840258
